# Blender v2.81 (sub 16) OBJ File: ''
# www.blender.org
o Object.1
v -3.432954 6.077672 2.523856
v 1.766804 6.077672 2.523856
v -3.432954 6.077672 -2.676162
v 1.766804 0.000000 -2.676162
v -3.432954 0.000000 2.523856
v -3.432954 0.000000 -2.676162
v 1.766804 0.000000 2.523856
v 1.766804 6.077672 -2.676162
vt 0.000000 1.000000
vt 0.000000 1.000000
vt 0.000000 1.000000
vt 0.000000 1.000000
vt 0.000000 1.000000
vt 0.000000 1.000000
vt 0.000000 1.000000
vt 0.000000 1.000000
vt 1.000000 -0.000000
vt 1.000000 1.000000
vt 0.000000 -0.000000
vt 1.000000 0.000000
vt 0.000000 0.000000
vt 1.000000 1.000000
vt 0.000000 -0.000000
vt 1.000000 -0.000000
vt 1.000000 1.000000
vt 1.000000 1.000000
vt 0.000000 0.000000
vt 1.000000 0.000000
vn 0.0000 1.0000 0.0000
vn 0.0000 -1.0000 0.0000
vn 0.0000 0.0000 -1.0000
vn -1.0000 0.0000 0.0000
vn 0.0000 0.0000 1.0000
vn 1.0000 0.0000 0.0000
s off
f 1/1/1 2/2/1 3/3/1
f 4/4/2 5/5/2 6/6/2
f 5/5/2 4/4/2 7/7/2
f 8/8/1 3/3/1 2/2/1
f 6/9/3 3/10/3 8/8/3
f 8/8/3 4/11/3 6/9/3
f 5/12/4 3/3/4 6/13/4
f 5/12/4 1/14/4 3/3/4
f 5/15/5 7/16/5 2/17/5
f 2/17/5 1/1/5 5/15/5
f 8/18/6 2/2/6 7/19/6
f 7/19/6 4/20/6 8/18/6
