# Blender v2.81 (sub 16) OBJ File: ''
# www.blender.org
o Ring_Mesh.005
v -0.158066 1.373448 -0.852782
v -0.152852 1.372324 -0.853478
v -0.148153 1.373176 -0.853800
v -0.145270 1.375891 -0.853521
v -0.143923 1.379838 -0.852937
v -0.143684 1.384352 -0.852471
v -0.144841 1.388644 -0.852106
v -0.147484 1.392035 -0.851734
v -0.151203 1.393958 -0.851339
v -0.155518 1.394117 -0.851092
v -0.159473 1.392426 -0.850996
v -0.162228 1.389247 -0.851015
v -0.163542 1.385056 -0.851163
v -0.163382 1.380458 -0.851598
v -0.161700 1.376319 -0.852145
v -0.157607 1.373260 -0.847662
v -0.152439 1.372021 -0.848391
v -0.147685 1.372865 -0.848824
v -0.144800 1.375684 -0.848666
v -0.143581 1.379731 -0.848246
v -0.143426 1.384251 -0.847894
v -0.144572 1.388491 -0.847567
v -0.147244 1.391820 -0.847235
v -0.151059 1.393723 -0.846946
v -0.155282 1.393874 -0.846599
v -0.159231 1.392262 -0.846404
v -0.161986 1.389117 -0.846309
v -0.163181 1.384930 -0.846350
v -0.163047 1.380348 -0.846669
v -0.161307 1.376199 -0.847124
v -0.159043 1.369767 -0.847649
v -0.152076 1.368099 -0.848879
v -0.145622 1.369680 -0.849461
v -0.142017 1.374155 -0.849239
v -0.140519 1.379990 -0.848474
v -0.140043 1.385988 -0.847935
v -0.141499 1.391176 -0.847425
v -0.144991 1.395404 -0.846913
v -0.150072 1.397859 -0.846525
v -0.155582 1.398007 -0.845981
v -0.160737 1.395869 -0.845596
v -0.163887 1.391750 -0.845168
v -0.164642 1.386412 -0.844946
v -0.164303 1.380163 -0.845451
v -0.162977 1.373996 -0.846619
v -0.159371 1.369976 -0.852720
v -0.152280 1.368416 -0.853779
v -0.146090 1.369871 -0.854388
v -0.142443 1.374228 -0.853964
v -0.140930 1.379974 -0.853113
v -0.140394 1.386020 -0.852537
v -0.141799 1.391318 -0.851999
v -0.145338 1.395570 -0.851512
v -0.150143 1.398110 -0.850866
v -0.155785 1.398259 -0.850577
v -0.160965 1.396037 -0.850263
v -0.164134 1.391957 -0.849940
v -0.164902 1.386602 -0.849831
v -0.164562 1.380357 -0.850383
v -0.163391 1.374224 -0.851579
v -0.157506 1.373000 -0.847401
v -0.152786 1.371570 -0.848358
v -0.148187 1.372344 -0.848537
v -0.145130 1.375340 -0.847997
v -0.143650 1.379641 -0.847459
v -0.143246 1.384236 -0.847161
v -0.144389 1.388451 -0.846847
v -0.147062 1.391760 -0.846525
v -0.150916 1.393661 -0.846234
v -0.155120 1.393803 -0.845891
v -0.159058 1.392189 -0.845693
v -0.161828 1.389043 -0.845589
v -0.163059 1.384870 -0.845626
v -0.162914 1.380294 -0.845908
v -0.161169 1.376131 -0.846427
v -0.157072 1.372908 -0.843167
v -0.151793 1.371152 -0.844620
v -0.146914 1.371920 -0.844870
v -0.144009 1.375232 -0.843909
v -0.142969 1.379768 -0.842964
v -0.142855 1.384410 -0.842636
v -0.144007 1.388595 -0.842402
v -0.146700 1.391878 -0.842127
v -0.150617 1.393782 -0.841833
v -0.154887 1.393931 -0.841426
v -0.158709 1.392310 -0.841168
v -0.161492 1.389164 -0.840966
v -0.162767 1.384982 -0.840910
v -0.162619 1.380423 -0.841092
v -0.160893 1.376246 -0.841739
v -0.158515 1.369337 -0.843174
v -0.151936 1.367107 -0.845210
v -0.145167 1.368490 -0.845565
v -0.141303 1.373438 -0.844324
v -0.139877 1.379782 -0.843183
v -0.139351 1.385949 -0.842666
v -0.140832 1.391189 -0.842182
v -0.144448 1.395351 -0.841755
v -0.149683 1.397812 -0.841359
v -0.155420 1.397966 -0.840733
v -0.160505 1.395788 -0.840287
v -0.163693 1.391603 -0.839841
v -0.164679 1.386085 -0.839571
v -0.164347 1.379828 -0.839990
v -0.162713 1.373856 -0.841171
v -0.158918 1.369462 -0.847839
v -0.152458 1.367391 -0.849483
v -0.145962 1.368735 -0.849801
v -0.142043 1.373565 -0.848747
v -0.140498 1.379863 -0.847705
v -0.139852 1.385991 -0.847207
v -0.141313 1.391146 -0.846699
v -0.144810 1.395340 -0.846191
v -0.149967 1.397792 -0.845797
v -0.155601 1.397947 -0.845236
v -0.160621 1.395779 -0.844873
v -0.163781 1.391639 -0.844446
v -0.164584 1.386279 -0.844214
v -0.164259 1.380027 -0.844710
v -0.162810 1.373874 -0.845971
vt 0.515051 0.647440
vt 0.520581 0.648910
vt 0.515051 0.648910
vt 0.520581 0.650390
vt 0.515051 0.650390
vt 0.515051 0.651860
vt 0.520581 0.651860
vt 0.515051 0.653330
vt 0.520581 0.653330
vt 0.515051 0.654810
vt 0.520581 0.654810
vt 0.515051 0.656280
vt 0.520581 0.656280
vt 0.515051 0.657750
vt 0.520581 0.657750
vt 0.515051 0.659230
vt 0.520581 0.659230
vt 0.515051 0.660700
vt 0.520581 0.660700
vt 0.515051 0.662180
vt 0.520581 0.662180
vt 0.515051 0.663650
vt 0.520581 0.663650
vt 0.520581 0.665120
vt 0.515051 0.665120
vt 0.520581 0.666600
vt 0.515051 0.666600
vt 0.520581 0.668070
vt 0.515051 0.668070
vt 0.520581 0.669540
vt 0.515051 0.669540
vt 0.526101 0.647440
vt 0.526101 0.648910
vt 0.526101 0.650390
vt 0.526101 0.651860
vt 0.526101 0.653330
vt 0.526101 0.654810
vt 0.526101 0.656280
vt 0.526101 0.657750
vt 0.526101 0.659230
vt 0.526101 0.660700
vt 0.526101 0.662180
vt 0.526101 0.663650
vt 0.526101 0.665120
vt 0.526101 0.666600
vt 0.526101 0.668070
vt 0.526101 0.669540
vt 0.531631 0.647440
vt 0.531631 0.648910
vt 0.531631 0.650390
vt 0.531631 0.651860
vt 0.531631 0.653330
vt 0.531631 0.654810
vt 0.531631 0.656280
vt 0.531631 0.657750
vt 0.531631 0.659230
vt 0.531631 0.660700
vt 0.531631 0.662180
vt 0.531631 0.663650
vt 0.531631 0.665120
vt 0.531631 0.666600
vt 0.531631 0.668070
vt 0.531631 0.669540
vt 0.537161 0.648910
vt 0.537161 0.650390
vt 0.537161 0.651860
vt 0.537161 0.653330
vt 0.537161 0.654810
vt 0.537161 0.656280
vt 0.537161 0.657750
vt 0.537161 0.659230
vt 0.537161 0.660700
vt 0.537161 0.662180
vt 0.537161 0.663650
vt 0.537161 0.665120
vt 0.537161 0.666600
vt 0.537161 0.668070
vt 0.537161 0.669540
vt 0.514941 0.677910
vt 0.520471 0.679390
vt 0.514941 0.679390
vt 0.514941 0.680860
vt 0.520471 0.680860
vt 0.514941 0.682330
vt 0.520471 0.682330
vt 0.514941 0.683810
vt 0.520471 0.683810
vt 0.514941 0.685280
vt 0.520471 0.685280
vt 0.514941 0.686760
vt 0.520471 0.686760
vt 0.514941 0.688230
vt 0.520471 0.688230
vt 0.514941 0.689700
vt 0.520471 0.689700
vt 0.514941 0.691180
vt 0.520471 0.691180
vt 0.520471 0.692650
vt 0.514941 0.692650
vt 0.520471 0.694120
vt 0.514941 0.694120
vt 0.520471 0.695600
vt 0.514941 0.695600
vt 0.520471 0.697070
vt 0.514941 0.697070
vt 0.520471 0.698550
vt 0.514941 0.698550
vt 0.520471 0.700020
vt 0.514941 0.700020
vt 0.526001 0.677910
vt 0.526001 0.679390
vt 0.526001 0.680860
vt 0.526001 0.682330
vt 0.526001 0.683810
vt 0.526001 0.685280
vt 0.526001 0.686760
vt 0.526001 0.688230
vt 0.526001 0.689700
vt 0.526001 0.691180
vt 0.526001 0.692650
vt 0.526001 0.694120
vt 0.526001 0.695600
vt 0.526001 0.697070
vt 0.526001 0.698550
vt 0.526001 0.700020
vt 0.531521 0.677910
vt 0.531521 0.679390
vt 0.531521 0.680860
vt 0.531521 0.682330
vt 0.531521 0.683810
vt 0.531521 0.685280
vt 0.531521 0.686760
vt 0.531521 0.688230
vt 0.531521 0.689700
vt 0.531521 0.691180
vt 0.531521 0.692650
vt 0.531521 0.694120
vt 0.531521 0.695600
vt 0.531521 0.697070
vt 0.531521 0.698550
vt 0.531521 0.700020
vt 0.537051 0.679390
vt 0.537051 0.680860
vt 0.537051 0.682330
vt 0.537051 0.683810
vt 0.537051 0.685280
vt 0.537051 0.686760
vt 0.537051 0.688230
vt 0.537051 0.689700
vt 0.537051 0.691180
vt 0.537051 0.692650
vt 0.537051 0.694120
vt 0.537051 0.695600
vt 0.537051 0.697070
vt 0.537051 0.698550
vt 0.537051 0.700020
vt 0.520581 0.647440
vt 0.537161 0.647440
vt 0.520471 0.677910
vt 0.537051 0.677910
vn 0.2250 0.5404 -0.8108
vn 0.0639 0.5926 0.8029
vn -0.0089 0.6846 -0.7289
vn -0.2161 0.5354 0.8165
vn -0.2918 0.6407 -0.7101
vn -0.5194 0.4615 -0.7192
vn -0.4377 0.3765 0.8165
vn -0.6566 0.2218 -0.7208
vn -0.5801 0.1604 0.7986
vn -0.6917 -0.0103 -0.7221
vn -0.6147 -0.0875 0.7839
vn -0.6166 -0.2392 -0.7500
vn -0.5464 -0.3316 0.7691
vn -0.4366 -0.4455 -0.7816
vn -0.3754 -0.5392 0.7539
vn -0.1823 -0.5598 -0.8083
vn -0.1235 -0.6592 0.7418
vn 0.0988 -0.5690 -0.8164
vn 0.1513 -0.6679 0.7287
vn 0.3420 -0.4864 -0.8040
vn 0.4078 -0.5625 0.7192
vn 0.5153 -0.3578 -0.7787
vn 0.5970 -0.3657 0.7141
vn 0.6949 -0.1295 0.7073
vn 0.6161 -0.0082 -0.7876
vn 0.7087 0.1855 0.6807
vn 0.5528 0.1489 -0.8199
vn 0.5352 0.3730 0.7579
vn 0.4954 0.4376 -0.7504
vn 0.4090 0.4800 0.7761
vn -0.3682 -0.7707 0.5201
vn 0.0057 -0.8651 0.5016
vn 0.3720 -0.7969 0.4760
vn 0.6735 -0.5983 0.4341
vn 0.8498 -0.3094 0.4268
vn 0.8904 0.0172 0.4549
vn 0.7889 0.3316 0.5174
vn 0.5656 0.5934 0.5727
vn 0.2325 0.7516 0.6173
vn -0.1408 0.7653 0.6281
vn -0.4783 0.6354 0.6062
vn -0.7325 0.3871 0.5600
vn -0.8532 0.0515 0.5191
vn -0.8000 -0.2666 0.5376
vn -0.6649 -0.5529 0.5022
vn -0.3973 -0.6790 -0.6174
vn -0.0437 -0.7688 -0.6380
vn 0.2930 -0.6996 -0.6517
vn 0.5769 -0.4994 -0.6463
vn 0.7452 -0.2144 -0.6315
vn 0.7949 0.1006 -0.5983
vn 0.7222 0.4207 -0.5490
vn 0.5160 0.6775 -0.5242
vn 0.1886 0.8494 -0.4929
vn -0.1840 0.8537 -0.4871
vn -0.5087 0.7071 -0.4912
vn -0.7239 0.4576 -0.5163
vn -0.8228 0.1661 -0.5436
vn -0.8099 -0.1934 -0.5538
vn -0.6487 -0.4653 -0.6023
vn 0.1094 0.5791 -0.8079
vn 0.0740 0.6117 0.7876
vn -0.0271 0.6677 -0.7439
vn -0.3750 0.6228 -0.6866
vn -0.2093 0.5499 0.8086
vn -0.5896 0.4020 -0.7005
vn -0.4497 0.3867 0.8051
vn -0.6816 0.1911 -0.7064
vn -0.5730 0.1649 0.8028
vn -0.7035 -0.0215 -0.7104
vn -0.6047 -0.0731 0.7931
vn -0.6231 -0.2578 -0.7384
vn -0.5356 -0.3136 0.7841
vn -0.4322 -0.4525 -0.7800
vn -0.3666 -0.5194 0.7718
vn -0.1805 -0.5703 -0.8014
vn -0.1154 -0.6400 0.7597
vn 0.1022 -0.5851 -0.8045
vn 0.1623 -0.6487 0.7436
vn 0.4199 -0.5434 0.7269
vn 0.3474 -0.4667 -0.8133
vn 0.6051 -0.3505 0.7148
vn 0.5385 -0.2785 -0.7952
vn 0.7048 -0.1098 0.7008
vn 0.6101 -0.0236 -0.7920
vn 0.6869 0.1878 0.7021
vn 0.5578 0.1224 -0.8209
vn 0.5542 0.3973 0.7315
vn 0.4777 0.4004 -0.7820
vn 0.4460 0.3597 0.8196
vn -0.3618 -0.7588 0.5416
vn 0.0081 -0.8573 0.5148
vn 0.3751 -0.7940 0.4784
vn 0.6723 -0.5952 0.4402
vn 0.8527 -0.3033 0.4253
vn 0.8918 0.0238 0.4519
vn 0.7953 0.3355 0.5049
vn 0.5668 0.6020 0.5624
vn 0.2437 0.7626 0.5992
vn -0.1355 0.7747 0.6176
vn -0.4735 0.6429 0.6020
vn -0.7253 0.3966 0.5628
vn -0.8479 0.0738 0.5250
vn -0.8185 -0.2405 0.5218
vn -0.6544 -0.5430 0.5261
vn -0.4084 -0.6861 -0.6021
vn -0.0510 -0.7733 -0.6320
vn 0.2921 -0.7025 -0.6490
vn 0.5651 -0.5055 -0.6520
vn 0.7376 -0.2167 -0.6395
vn 0.7885 0.1038 -0.6063
vn 0.7167 0.4128 -0.5620
vn 0.5091 0.6808 -0.5266
vn 0.1826 0.8400 -0.5110
vn -0.1831 0.8502 -0.4936
vn -0.5124 0.7012 -0.4957
vn -0.7294 0.4495 -0.5156
vn -0.8225 0.1588 -0.5462
vn -0.8049 -0.2007 -0.5585
vn -0.6537 -0.4808 -0.5844
s 1
f 1/1/1 17/2/2 2/3/3
f 2/3/3 18/4/4 3/5/5
f 4/6/6 18/4/4 19/7/7
f 5/8/8 19/7/7 20/9/9
f 6/10/10 20/9/9 21/11/11
f 7/12/12 21/11/11 22/13/13
f 8/14/14 22/13/13 23/15/15
f 9/16/16 23/15/15 24/17/17
f 10/18/18 24/17/17 25/19/19
f 11/20/20 25/19/19 26/21/21
f 12/22/22 26/21/21 27/23/23
f 12/22/22 28/24/24 13/25/25
f 13/25/25 29/26/26 14/27/27
f 14/27/27 30/28/28 15/29/29
f 15/29/29 16/30/30 1/31/1
f 17/2/2 31/32/31 32/33/32
f 18/4/4 32/33/32 33/34/33
f 18/4/4 34/35/34 19/7/7
f 20/9/9 34/35/34 35/36/35
f 21/11/11 35/36/35 36/37/36
f 22/13/13 36/37/36 37/38/37
f 23/15/15 37/38/37 38/39/38
f 24/17/17 38/39/38 39/40/39
f 24/17/17 40/41/40 25/19/19
f 25/19/19 41/42/41 26/21/21
f 26/21/21 42/43/42 27/23/23
f 27/23/23 43/44/43 28/24/24
f 28/24/24 44/45/44 29/26/26
f 30/28/28 44/45/44 45/46/45
f 16/30/30 45/46/45 31/47/31
f 32/33/32 46/48/46 47/49/47
f 33/34/33 47/49/47 48/50/48
f 33/34/33 49/51/49 34/35/34
f 34/35/34 50/52/50 35/36/35
f 35/36/35 51/53/51 36/37/36
f 36/37/36 52/54/52 37/38/37
f 37/38/37 53/55/53 38/39/38
f 38/39/38 54/56/54 39/40/39
f 39/40/39 55/57/55 40/41/40
f 40/41/40 56/58/56 41/42/41
f 41/42/41 57/59/57 42/43/42
f 42/43/42 58/60/58 43/44/43
f 44/45/44 58/60/58 59/61/59
f 45/46/45 59/61/59 60/62/60
f 31/47/31 60/62/60 46/63/46
f 46/48/46 2/64/3 47/49/47
f 47/49/47 3/65/5 48/50/48
f 49/51/49 3/65/5 4/66/6
f 49/51/49 5/67/8 50/52/50
f 50/52/50 6/68/10 51/53/51
f 51/53/51 7/69/12 52/54/52
f 52/54/52 8/70/14 53/55/53
f 53/55/53 9/71/16 54/56/54
f 55/57/55 9/71/16 10/72/18
f 56/58/56 10/72/18 11/73/20
f 57/59/57 11/73/20 12/74/22
f 58/60/58 12/74/22 13/75/25
f 59/61/59 13/75/25 14/76/27
f 59/61/59 15/77/29 60/62/60
f 60/62/60 1/78/1 46/63/46
f 61/79/61 77/80/62 62/81/63
f 63/82/64 77/80/62 78/83/65
f 64/84/66 78/83/65 79/85/67
f 65/86/68 79/85/67 80/87/69
f 66/88/70 80/87/69 81/89/71
f 67/90/72 81/89/71 82/91/73
f 68/92/74 82/91/73 83/93/75
f 69/94/76 83/93/75 84/95/77
f 70/96/78 84/95/77 85/97/79
f 70/96/78 86/98/80 71/99/81
f 71/99/81 87/100/82 72/101/83
f 72/101/83 88/102/84 73/103/85
f 73/103/85 89/104/86 74/105/87
f 74/105/87 90/106/88 75/107/89
f 75/107/89 76/108/90 61/109/61
f 77/80/62 91/110/91 92/111/92
f 78/83/65 92/111/92 93/112/93
f 78/83/65 94/113/94 79/85/67
f 79/85/67 95/114/95 80/87/69
f 81/89/71 95/114/95 96/115/96
f 82/91/73 96/115/96 97/116/97
f 83/93/75 97/116/97 98/117/98
f 84/95/77 98/117/98 99/118/99
f 84/95/77 100/119/100 85/97/79
f 85/97/79 101/120/101 86/98/80
f 86/98/80 102/121/102 87/100/82
f 87/100/82 103/122/103 88/102/84
f 88/102/84 104/123/104 89/104/86
f 90/106/88 104/123/104 105/124/105
f 76/108/90 105/124/105 91/125/91
f 92/111/92 106/126/106 107/127/107
f 92/111/92 108/128/108 93/112/93
f 93/112/93 109/129/109 94/113/94
f 94/113/94 110/130/110 95/114/95
f 95/114/95 111/131/111 96/115/96
f 96/115/96 112/132/112 97/116/97
f 97/116/97 113/133/113 98/117/98
f 98/117/98 114/134/114 99/118/99
f 99/118/99 115/135/115 100/119/100
f 100/119/100 116/136/116 101/120/101
f 101/120/101 117/137/117 102/121/102
f 102/121/102 118/138/118 103/122/103
f 104/123/104 118/138/118 119/139/119
f 105/124/105 119/139/119 120/140/120
f 91/125/91 120/140/120 106/141/106
f 106/126/106 62/142/63 107/127/107
f 107/127/107 63/143/64 108/128/108
f 109/129/109 63/143/64 64/144/66
f 109/129/109 65/145/68 110/130/110
f 110/130/110 66/146/70 111/131/111
f 111/131/111 67/147/72 112/132/112
f 112/132/112 68/148/74 113/133/113
f 113/133/113 69/149/76 114/134/114
f 115/135/115 69/149/76 70/150/78
f 116/136/116 70/150/78 71/151/81
f 117/137/117 71/151/81 72/152/83
f 118/138/118 72/152/83 73/153/85
f 119/139/119 73/153/85 74/154/87
f 119/139/119 75/155/89 120/140/120
f 120/140/120 61/156/61 106/141/106
f 1/1/1 16/157/30 17/2/2
f 2/3/3 17/2/2 18/4/4
f 4/6/6 3/5/5 18/4/4
f 5/8/8 4/6/6 19/7/7
f 6/10/10 5/8/8 20/9/9
f 7/12/12 6/10/10 21/11/11
f 8/14/14 7/12/12 22/13/13
f 9/16/16 8/14/14 23/15/15
f 10/18/18 9/16/16 24/17/17
f 11/20/20 10/18/18 25/19/19
f 12/22/22 11/20/20 26/21/21
f 12/22/22 27/23/23 28/24/24
f 13/25/25 28/24/24 29/26/26
f 14/27/27 29/26/26 30/28/28
f 15/29/29 30/28/28 16/30/30
f 17/2/2 16/157/30 31/32/31
f 18/4/4 17/2/2 32/33/32
f 18/4/4 33/34/33 34/35/34
f 20/9/9 19/7/7 34/35/34
f 21/11/11 20/9/9 35/36/35
f 22/13/13 21/11/11 36/37/36
f 23/15/15 22/13/13 37/38/37
f 24/17/17 23/15/15 38/39/38
f 24/17/17 39/40/39 40/41/40
f 25/19/19 40/41/40 41/42/41
f 26/21/21 41/42/41 42/43/42
f 27/23/23 42/43/42 43/44/43
f 28/24/24 43/44/43 44/45/44
f 30/28/28 29/26/26 44/45/44
f 16/30/30 30/28/28 45/46/45
f 32/33/32 31/32/31 46/48/46
f 33/34/33 32/33/32 47/49/47
f 33/34/33 48/50/48 49/51/49
f 34/35/34 49/51/49 50/52/50
f 35/36/35 50/52/50 51/53/51
f 36/37/36 51/53/51 52/54/52
f 37/38/37 52/54/52 53/55/53
f 38/39/38 53/55/53 54/56/54
f 39/40/39 54/56/54 55/57/55
f 40/41/40 55/57/55 56/58/56
f 41/42/41 56/58/56 57/59/57
f 42/43/42 57/59/57 58/60/58
f 44/45/44 43/44/43 58/60/58
f 45/46/45 44/45/44 59/61/59
f 31/47/31 45/46/45 60/62/60
f 46/48/46 1/158/1 2/64/3
f 47/49/47 2/64/3 3/65/5
f 49/51/49 48/50/48 3/65/5
f 49/51/49 4/66/6 5/67/8
f 50/52/50 5/67/8 6/68/10
f 51/53/51 6/68/10 7/69/12
f 52/54/52 7/69/12 8/70/14
f 53/55/53 8/70/14 9/71/16
f 55/57/55 54/56/54 9/71/16
f 56/58/56 55/57/55 10/72/18
f 57/59/57 56/58/56 11/73/20
f 58/60/58 57/59/57 12/74/22
f 59/61/59 58/60/58 13/75/25
f 59/61/59 14/76/27 15/77/29
f 60/62/60 15/77/29 1/78/1
f 61/79/61 76/159/90 77/80/62
f 63/82/64 62/81/63 77/80/62
f 64/84/66 63/82/64 78/83/65
f 65/86/68 64/84/66 79/85/67
f 66/88/70 65/86/68 80/87/69
f 67/90/72 66/88/70 81/89/71
f 68/92/74 67/90/72 82/91/73
f 69/94/76 68/92/74 83/93/75
f 70/96/78 69/94/76 84/95/77
f 70/96/78 85/97/79 86/98/80
f 71/99/81 86/98/80 87/100/82
f 72/101/83 87/100/82 88/102/84
f 73/103/85 88/102/84 89/104/86
f 74/105/87 89/104/86 90/106/88
f 75/107/89 90/106/88 76/108/90
f 77/80/62 76/159/90 91/110/91
f 78/83/65 77/80/62 92/111/92
f 78/83/65 93/112/93 94/113/94
f 79/85/67 94/113/94 95/114/95
f 81/89/71 80/87/69 95/114/95
f 82/91/73 81/89/71 96/115/96
f 83/93/75 82/91/73 97/116/97
f 84/95/77 83/93/75 98/117/98
f 84/95/77 99/118/99 100/119/100
f 85/97/79 100/119/100 101/120/101
f 86/98/80 101/120/101 102/121/102
f 87/100/82 102/121/102 103/122/103
f 88/102/84 103/122/103 104/123/104
f 90/106/88 89/104/86 104/123/104
f 76/108/90 90/106/88 105/124/105
f 92/111/92 91/110/91 106/126/106
f 92/111/92 107/127/107 108/128/108
f 93/112/93 108/128/108 109/129/109
f 94/113/94 109/129/109 110/130/110
f 95/114/95 110/130/110 111/131/111
f 96/115/96 111/131/111 112/132/112
f 97/116/97 112/132/112 113/133/113
f 98/117/98 113/133/113 114/134/114
f 99/118/99 114/134/114 115/135/115
f 100/119/100 115/135/115 116/136/116
f 101/120/101 116/136/116 117/137/117
f 102/121/102 117/137/117 118/138/118
f 104/123/104 103/122/103 118/138/118
f 105/124/105 104/123/104 119/139/119
f 91/125/91 105/124/105 120/140/120
f 106/126/106 61/160/61 62/142/63
f 107/127/107 62/142/63 63/143/64
f 109/129/109 108/128/108 63/143/64
f 109/129/109 64/144/66 65/145/68
f 110/130/110 65/145/68 66/146/70
f 111/131/111 66/146/70 67/147/72
f 112/132/112 67/147/72 68/148/74
f 113/133/113 68/148/74 69/149/76
f 115/135/115 114/134/114 69/149/76
f 116/136/116 115/135/115 70/150/78
f 117/137/117 116/136/116 71/151/81
f 118/138/118 117/137/117 72/152/83
f 119/139/119 118/138/118 73/153/85
f 119/139/119 74/154/87 75/155/89
f 120/140/120 75/155/89 61/156/61
